<svg xmlns="http://www.w3.org/2000/svg">
<symbol id="calendar" viewBox="0 0 24 24"><path d="M8 2v4M16 2v4M3 9h18M5 4h14a2 2 0 0 1 2 2v14H3V6a2 2 0 0 1 2-2Z" fill="none" stroke="currentColor" stroke-width="2" stroke-linecap="round" stroke-linejoin="round"/></symbol>
<symbol id="grid" viewBox="0 0 24 24"><rect x="3" y="3" width="7" height="7" rx="1" fill="none" stroke="currentColor" stroke-width="2"/><rect x="14" y="3" width="7" height="7" rx="1" fill="none" stroke="currentColor" stroke-width="2"/><rect x="3" y="14" width="7" height="7" rx="1" fill="none" stroke="currentColor" stroke-width="2"/><rect x="14" y="14" width="7" height="7" rx="1" fill="none" stroke="currentColor" stroke-width="2"/></symbol>
<symbol id="copy" viewBox="0 0 24 24"><rect x="9" y="9" width="12" height="12" rx="2" fill="none" stroke="currentColor" stroke-width="2"/><path d="M5 15H4a2 2 0 0 1-2-2V4a2 2 0 0 1 2-2h9a2 2 0 0 1 2 2v1" fill="none" stroke="currentColor" stroke-width="2" stroke-linecap="round"/></symbol>
<symbol id="alert" viewBox="0 0 24 24"><path d="M10.3 3.6 1.8 18a2 2 0 0 0 1.7 3h17a2 2 0 0 0 1.7-3L13.7 3.6a2 2 0 0 0-3.4 0Z" fill="none" stroke="currentColor" stroke-width="2" stroke-linejoin="round"/><path d="M12 9v4M12 17h.01" fill="none" stroke="currentColor" stroke-width="2" stroke-linecap="round"/></symbol>
<symbol id="link" viewBox="0 0 24 24"><path d="M10 13a5 5 0 0 0 7.5.5l3-3a5 5 0 0 0-7-7l-1.7 1.7M14 11a5 5 0 0 0-7.5-.5l-3 3a5 5 0 0 0 7 7l1.7-1.7" fill="none" stroke="currentColor" stroke-width="2" stroke-linecap="round"/></symbol>
<symbol id="users" viewBox="0 0 24 24"><path d="M16 21v-2a4 4 0 0 0-4-4H6a4 4 0 0 0-4 4v2M9 11a4 4 0 1 0 0-8 4 4 0 0 0 0 8ZM22 21v-2a4 4 0 0 0-3-3.87M16 3.13a4 4 0 0 1 0 7.75" fill="none" stroke="currentColor" stroke-width="2" stroke-linecap="round"/></symbol>
<symbol id="activity" viewBox="0 0 24 24"><path d="M3 12h4l3-9 4 18 3-9h4" fill="none" stroke="currentColor" stroke-width="2" stroke-linecap="round" stroke-linejoin="round"/></symbol>
<symbol id="settings" viewBox="0 0 24 24"><circle cx="12" cy="12" r="3" fill="none" stroke="currentColor" stroke-width="2"/><path d="M19.4 15a1.7 1.7 0 0 0 .3 1.9l.1.1-2.8 2.8-.1-.1a1.7 1.7 0 0 0-1.9-.3 1.7 1.7 0 0 0-1 1.6v.2h-4V21a1.7 1.7 0 0 0-1-1.6 1.7 1.7 0 0 0-1.9.3l-.1.1L4.2 17l.1-.1a1.7 1.7 0 0 0 .3-1.9A1.7 1.7 0 0 0 3 14H2.8v-4H3a1.7 1.7 0 0 0 1.6-1 1.7 1.7 0 0 0-.3-1.9L4.2 7 7 4.2l.1.1A1.7 1.7 0 0 0 9 4.6a1.7 1.7 0 0 0 1-1.6v-.2h4V3a1.7 1.7 0 0 0 1 1.6 1.7 1.7 0 0 0 1.9-.3l.1-.1L19.8 7l-.1.1a1.7 1.7 0 0 0-.3 1.9 1.7 1.7 0 0 0 1.6 1h.2v4H21a1.7 1.7 0 0 0-1.6 1Z" fill="none" stroke="currentColor" stroke-width="1.5" stroke-linecap="round"/></symbol>
<symbol id="chevron-down" viewBox="0 0 24 24"><path d="m6 9 6 6 6-6" fill="none" stroke="currentColor" stroke-width="2" stroke-linecap="round" stroke-linejoin="round"/></symbol>
<symbol id="chevron-right" viewBox="0 0 24 24"><path d="m9 18 6-6-6-6" fill="none" stroke="currentColor" stroke-width="2" stroke-linecap="round" stroke-linejoin="round"/></symbol>
<symbol id="chevron-left" viewBox="0 0 24 24"><path d="m15 18-6-6 6-6" fill="none" stroke="currentColor" stroke-width="2" stroke-linecap="round" stroke-linejoin="round"/></symbol>
<symbol id="plus" viewBox="0 0 24 24"><path d="M12 5v14M5 12h14" fill="none" stroke="currentColor" stroke-width="2" stroke-linecap="round"/></symbol>
<symbol id="sparkles" viewBox="0 0 24 24"><path d="m12 3-1.4 3.6L7 8l3.6 1.4L12 13l1.4-3.6L17 8l-3.6-1.4L12 3ZM5 14l-.9 2.1L2 17l2.1.9L5 20l.9-2.1L8 17l-2.1-.9L5 14ZM19 14l-.9 2.1L16 17l2.1.9L19 20l.9-2.1L22 17l-2.1-.9L19 14Z" fill="none" stroke="currentColor" stroke-width="1.7" stroke-linejoin="round"/></symbol>
<symbol id="play" viewBox="0 0 24 24"><circle cx="12" cy="12" r="10" fill="none" stroke="currentColor" stroke-width="2"/><path d="m10 8 6 4-6 4V8Z" fill="currentColor"/></symbol>
<symbol id="menu" viewBox="0 0 24 24"><path d="M4 7h16M4 12h16M4 17h16" fill="none" stroke="currentColor" stroke-width="2" stroke-linecap="round"/></symbol>
<symbol id="bell" viewBox="0 0 24 24"><path d="M18 8a6 6 0 0 0-12 0c0 7-3 7-3 9h18c0-2-3-2-3-9ZM13.7 21a2 2 0 0 1-3.4 0" fill="none" stroke="currentColor" stroke-width="2" stroke-linecap="round" stroke-linejoin="round"/></symbol>
<symbol id="shield" viewBox="0 0 24 24"><path d="M12 22s8-4 8-10V5l-8-3-8 3v7c0 6 8 10 8 10Z" fill="none" stroke="currentColor" stroke-width="2" stroke-linejoin="round"/><path d="m9 12 2 2 4-4" fill="none" stroke="currentColor" stroke-width="2" stroke-linecap="round"/></symbol>
<symbol id="clock" viewBox="0 0 24 24"><circle cx="12" cy="12" r="9" fill="none" stroke="currentColor" stroke-width="2"/><path d="M12 7v5l3 2" fill="none" stroke="currentColor" stroke-width="2" stroke-linecap="round"/></symbol>
<symbol id="check" viewBox="0 0 24 24"><path d="m5 12 4 4L19 6" fill="none" stroke="currentColor" stroke-width="2" stroke-linecap="round" stroke-linejoin="round"/></symbol>
<symbol id="search" viewBox="0 0 24 24"><circle cx="11" cy="11" r="7" fill="none" stroke="currentColor" stroke-width="2"/><path d="m20 20-4-4" fill="none" stroke="currentColor" stroke-width="2" stroke-linecap="round"/></symbol>
<symbol id="x" viewBox="0 0 24 24"><path d="M6 6l12 12M18 6 6 18" fill="none" stroke="currentColor" stroke-width="2" stroke-linecap="round"/></symbol>
<symbol id="mic" viewBox="0 0 24 24"><rect x="9" y="2" width="6" height="12" rx="3" fill="none" stroke="currentColor" stroke-width="2"/><path d="M5 10a7 7 0 0 0 14 0M12 17v5M8 22h8" fill="none" stroke="currentColor" stroke-width="2" stroke-linecap="round"/></symbol>
<symbol id="pause" viewBox="0 0 24 24"><path d="M8 5v14M16 5v14" fill="none" stroke="currentColor" stroke-width="3" stroke-linecap="round"/></symbol>
<symbol id="volume" viewBox="0 0 24 24"><path d="M11 5 6 9H2v6h4l5 4V5ZM15 9a4 4 0 0 1 0 6M18 6a8 8 0 0 1 0 12" fill="none" stroke="currentColor" stroke-width="2" stroke-linecap="round" stroke-linejoin="round"/></symbol>
<symbol id="edit" viewBox="0 0 24 24"><path d="M12 20h9M16.5 3.5a2.1 2.1 0 0 1 3 3L8 18l-4 1 1-4L16.5 3.5Z" fill="none" stroke="currentColor" stroke-width="2" stroke-linecap="round" stroke-linejoin="round"/></symbol>
<symbol id="lock" viewBox="0 0 24 24"><rect x="4" y="10" width="16" height="11" rx="2" fill="none" stroke="currentColor" stroke-width="2"/><path d="M8 10V7a4 4 0 0 1 8 0v3" fill="none" stroke="currentColor" stroke-width="2" stroke-linecap="round"/></symbol>
<symbol id="refresh" viewBox="0 0 24 24"><path d="M20 7h-6V1M4 17h6v6M20 7a8 8 0 0 0-14-3L4 7M4 17a8 8 0 0 0 14 3l2-3" fill="none" stroke="currentColor" stroke-width="2" stroke-linecap="round" stroke-linejoin="round"/></symbol>
<symbol id="external" viewBox="0 0 24 24"><path d="M14 3h7v7M10 14 21 3M21 14v6a1 1 0 0 1-1 1H4a1 1 0 0 1-1-1V4a1 1 0 0 1 1-1h6" fill="none" stroke="currentColor" stroke-width="2" stroke-linecap="round" stroke-linejoin="round"/></symbol>
<symbol id="trash" viewBox="0 0 24 24"><path d="M3 6h18M8 6V3h8v3M19 6l-1 15H6L5 6M10 11v6M14 11v6" fill="none" stroke="currentColor" stroke-width="2" stroke-linecap="round" stroke-linejoin="round"/></symbol>
<symbol id="info" viewBox="0 0 24 24"><circle cx="12" cy="12" r="9" fill="none" stroke="currentColor" stroke-width="2"/><path d="M12 11v5M12 8h.01" fill="none" stroke="currentColor" stroke-width="2" stroke-linecap="round"/></symbol>
<symbol id="mail" viewBox="0 0 24 24"><rect x="3" y="5" width="18" height="14" rx="2" fill="none" stroke="currentColor" stroke-width="2"/><path d="m3 7 9 6 9-6" fill="none" stroke="currentColor" stroke-width="2" stroke-linejoin="round"/></symbol>
<symbol id="key" viewBox="0 0 24 24"><circle cx="7.5" cy="15.5" r="4.5" fill="none" stroke="currentColor" stroke-width="2"/><path d="m11 12 9-9M16 7l3 3M14 9l3 3" fill="none" stroke="currentColor" stroke-width="2" stroke-linecap="round"/></symbol>

<symbol id="arrow-right" viewBox="0 0 24 24"><path d="M5 12h14M13 6l6 6-6 6" fill="none" stroke="currentColor" stroke-width="1.8" stroke-linecap="round" stroke-linejoin="round"/></symbol>
<symbol id="eye-off" viewBox="0 0 24 24"><path d="M3 3l18 18M10.6 10.7a2 2 0 0 0 2.8 2.8M9.9 4.3A10.8 10.8 0 0 1 12 4c5.5 0 9 5 9 5a15.8 15.8 0 0 1-2.2 2.7M6.2 6.2C4.2 7.5 3 9 3 9s3.5 5 9 5a10 10 0 0 0 3-.5" fill="none" stroke="currentColor" stroke-width="1.8" stroke-linecap="round" stroke-linejoin="round"/></symbol>
</svg>
